<svg id="Calque_1" data-name="Calque 1" xmlns="http://www.w3.org/2000/svg" viewBox="0 0 139.6294 66.6865"><title>logo</title><path d="M613.8716,353.6362a10.5481,10.5481,0,0,1,8.1841,3.4561,12.8916,12.8916,0,0,1,3.144,9.0239,12.5112,12.5112,0,0,1-3.144,8.832,10.6182,10.6182,0,0,1-8.1841,3.4082,10.1809,10.1809,0,0,1-8.0156-3.5522,13.3075,13.3075,0,0,1-3.12-9.12,12.2583,12.2583,0,0,1,3.12-8.688A10.45,10.45,0,0,1,613.8716,353.6362Zm0,23.76a9.2378,9.2378,0,0,0,7.2-3.0957,11.5692,11.5692,0,0,0,2.7842-8.04,12.54,12.54,0,0,0-2.76-8.4239,9.6577,9.6577,0,0,0-14.3037-.144A11.8253,11.8253,0,0,0,604.08,365.78a12.6364,12.6364,0,0,0,2.688,8.4238A8.8267,8.8267,0,0,0,613.8716,377.396Z" transform="translate(-602.7358 -344.9961)"/><path d="M629.9512,345.0923h3.8882a.8429.8429,0,0,1,.8637.4306,3.0126,3.0126,0,0,1,.0962,1.0049v22.3487a32.172,32.172,0,0,0,.3838,6.7236q.3838,1.1718,2.2564,1.1724h2.2558q1.0079,0,1.0078.53,0,.5743-.8637.5743h-.1441l-1.68-.1441-1.9677-.144h-3.7442l-1.9678.144-1.68.1441h-.1919q-.8643,0-.8643-.53,0-.5742,1.0562-.5737h2.2558q1.8722,0,2.2564-1.1485a32.1925,32.1925,0,0,0,.3838-6.747v-16.7a25.3586,25.3586,0,0,0-.2881-5.2153q-.2879-.8613-1.68-.8618-.72,0-1.584.0581-1.2963.0864-1.44.0859-.96,0-.96-.5756t.8164-.5762h1.5357Z" transform="translate(-602.7358 -344.9961)"/><path d="M661.5825,375.4282v-1.92a9.0761,9.0761,0,0,1-8.2021,4.8481,9.5357,9.5357,0,0,1-7.5508-3.36,12.7667,12.7667,0,0,1-2.919-8.688,13.376,13.376,0,0,1,3.1119-9.0718,9.9237,9.9237,0,0,1,7.84-3.6,7.8441,7.8441,0,0,1,7.72,4.752V352.1q0-4.7988-.3418-5.4717t-1.61-.6723q-.5362,0-1.6582.0961t-1.4629.0962q-.9273,0-.9273-.5761t.8213-.5762h5.3643a1.1353,1.1353,0,0,1,.749.1929q.2168.1933.2173.9643v24.5913q0,4.87.3364,5.5205.3347.6519,1.584.6509a14.347,14.347,0,0,0,1.584-.1919q1.2473-.1911,1.44-.1919.96,0,.96.624t-.8047.6241H662.53a.76.76,0,0,1-.7344-.4082A5.2966,5.2966,0,0,1,661.5825,375.4282Zm0-8.7358v-.624q0-5.568-1.2959-7.92-1.9687-3.5521-6.5762-3.5522a8.3409,8.3409,0,0,0-6.768,3.3359,12.9972,12.9972,0,0,0-2.688,8.4243,12.0249,12.0249,0,0,0,2.5684,7.9439,8.2348,8.2348,0,0,0,6.6479,3.0957,7.5125,7.5125,0,0,0,5.76-2.4956,8.2146,8.2146,0,0,0,1.8481-3.2163A18.8606,18.8606,0,0,0,661.5825,366.6924Z" transform="translate(-602.7358 -344.9961)"/><path d="M687.7422,361.0762a1.0312,1.0312,0,0,1,.8154.24l.2881.3359a.8257.8257,0,0,0,.3838.1441q.6723,0,.6728-1.3443a5.1075,5.1075,0,0,0-2.1845-4.1518,8.364,8.364,0,0,0-5.3042-1.7041,9.4105,9.4105,0,0,0-7.44,3.168A12.4083,12.4083,0,0,0,672.19,366.26a11.809,11.809,0,0,0,2.664,8.1357,9.17,9.17,0,0,0,7.2241,3,7.8311,7.8311,0,0,0,6.5279-2.7837,6.8915,6.8915,0,0,0,1.6328-3.84q.0468-1.2.6719-1.2.6708,0,.6718.9121a7.5247,7.5247,0,0,1-2.4961,5.376,9.2775,9.2775,0,0,1-6.8642,2.496,10.7686,10.7686,0,0,1-8.2559-3.3364,12.3023,12.3023,0,0,1-3.12-8.76,13.0791,13.0791,0,0,1,3.168-9.12,10.61,10.61,0,0,1,8.2558-3.5039,9.7327,9.7327,0,0,1,6.2881,2.04,6.207,6.207,0,0,1,2.544,5.0161,3.84,3.84,0,0,1-.84,2.5439,2.6126,2.6126,0,0,1-2.0879,1.0078q-1.872,0-1.872-1.728A1.2726,1.2726,0,0,1,687.7422,361.0762Z" transform="translate(-602.7358 -344.9961)"/><path d="M712.3174,373.2681l-.0479-.3838-.1914.3359a11.4526,11.4526,0,0,1-1.77,2.208,10.08,10.08,0,0,1-7.3721,2.9282,8.3666,8.3666,0,0,1-5.6-1.8242,5.9294,5.9294,0,0,1-2.1543-4.7519,6.2235,6.2235,0,0,1,1.545-4.2241,7.1779,7.1779,0,0,1,4.1025-2.3038,32.25,32.25,0,0,1,4.1025-.48,12.1432,12.1432,0,0,0,5.6485-1.3682,3.8566,3.8566,0,0,0,1.7373-3.48,4.6569,4.6569,0,0,0-1.8838-3.8642,7.8976,7.8976,0,0,0-4.9775-1.4639,9.49,9.49,0,0,0-5.3409,1.3921,4.1047,4.1047,0,0,0-2.1015,3.5039q0,.7683.4316.7681c.0645,0,.16-.064.2881-.1919a1.3424,1.3424,0,0,1,.0967-.2881,1.2711,1.2711,0,0,1,1.2949-.8159q1.4414,0,1.44,1.5356a1.8678,1.8678,0,0,1-.6474,1.416,2.213,2.213,0,0,1-1.5606.6,2.5179,2.5179,0,0,1-1.8965-.84,2.8075,2.8075,0,0,1-.791-1.9922,5.1213,5.1213,0,0,1,2.4717-4.32,10.5066,10.5066,0,0,1,6.168-1.7281,9.0248,9.0248,0,0,1,5.9033,1.7759q2.3525,1.9688,2.3525,6.1441v11.9521q.1466,3.8877,2.544,3.8877,2.64,0,2.6406-3.5518v-2.352c-.0332-.9277.1758-1.3921.6221-1.3921q.577,0,.5771.96v1.92q-.1464,5.376-3.8887,5.3759-3.5009,0-3.7431-4.2241Zm-9.168,4.1279a9.1351,9.1351,0,0,0,9.168-9.168v-4.6557c0-.3194-.0645-.48-.1924-.48a3.4352,3.4352,0,0,0-.5273.5762q-1.5367,1.8713-6.8165,2.208a18.3644,18.3644,0,0,0-4.5839.72,5.523,5.523,0,0,0-2.52,1.7759,5.2447,5.2447,0,0,0-1.1523,3.456,5,5,0,0,0,1.8721,3.9839A7.1007,7.1007,0,0,0,703.1494,377.396Z" transform="translate(-602.7358 -344.9961)"/><path d="M728.2529,358.2441a8.2718,8.2718,0,0,1,7.5362-4.6079,6.9457,6.9457,0,0,1,4.7285,1.6079,5.253,5.253,0,0,1,1.8476,4.1519,4.5711,4.5711,0,0,1-.84,2.8081,2.5608,2.5608,0,0,1-2.1367,1.1279q-1.7271,0-1.7276-1.584a1.3677,1.3677,0,0,1,2.208-1.1518,1.22,1.22,0,0,0,.5284.2881q.6225,0,.624-1.7281a4.1277,4.1277,0,0,0-1.4883-3.288,5.778,5.778,0,0,0-3.8887-1.272,6.4985,6.4985,0,0,0-6,3.0723q-1.3915,2.3034-1.3916,7.104v4.08a32.3674,32.3674,0,0,0,.3838,6.768q.3838,1.1522,2.209,1.1524h2.2559q1.0547,0,1.0556.53,0,.5743-.9121.5743h-.1435l-1.6807-.1441-1.9678-.144h-3.6953l-1.9687.144-1.68.1441h-.1446q-.9111,0-.9121-.53,0-.5742,1.0567-.5737h2.2558q1.8722,0,2.2559-1.1524a32.3276,32.3276,0,0,0,.3848-6.768v-10.56q-.0983-2.4946-.7207-2.88a2.4516,2.4516,0,0,0-1.2481-.24c-.1914,0-.7207.0322-1.584.0957l-1.4394.0962q-.961,0-.961-.6241t.8164-.624c.2881,0,.7989.0322,1.5362.0962q.5272.0483,1.1045.0479h.7187q.5289,0,1.5371-.108a1.0427,1.0427,0,0,0,.24-.0361h.2392a.9072.9072,0,0,1,1.0078,1.044Z" transform="translate(-602.7358 -344.9961)"/><path d="M623.8989,390.6943h-2.9878q-.3969-3.0234-2.8442-3.0234a3.3228,3.3228,0,0,0-2.376.7559,2.9932,2.9932,0,0,0-.792,2.2675,3.2229,3.2229,0,0,0,.8638,2.1241l6.3721,7.1279a6.29,6.29,0,0,1,1.7641,4.248v1.4766a6.0544,6.0544,0,0,1-6.0122,6.0117h-2.9878a5.3142,5.3142,0,0,1-6.0122-6.0117h3.0244v.5039a2.1359,2.1359,0,0,0,.9361,1.8721,3.5287,3.5287,0,0,0,2.0517.6474,2.9576,2.9576,0,0,0,2.2862-.7734,3.241,3.241,0,0,0,.7016-2.25,3.13,3.13,0,0,0-.8638-2.124l-6.372-7.128a6.1978,6.1978,0,0,1-1.7642-4.248v-1.4766a6.0546,6.0546,0,0,1,6.0122-6.0117h2.9878Q623.5389,384.6826,623.8989,390.6943Z" transform="translate(-602.7358 -344.9961)"/><path d="M630.0547,411.6826v-27h6.0122v11.9883h6.0122V384.6826h5.9756v27h-5.9756V399.6943h-6.0122v11.9883Z" transform="translate(-602.7358 -344.9961)"/><path d="M660.2583,384.6826h6.0122a5.72,5.72,0,0,1,4.2119,1.7822,5.8093,5.8093,0,0,1,1.7637,4.2295v14.9766a5.8093,5.8093,0,0,1-1.7637,4.2295,5.7191,5.7191,0,0,1-4.2119,1.7822h-6.0122a6.0537,6.0537,0,0,1-6.0122-6.0117V390.6943a6.0537,6.0537,0,0,1,6.0122-6.0117Zm0,6.0117v14.9766a2.9331,2.9331,0,0,0,.8818,2.124,2.8472,2.8472,0,0,0,2.106.8994,2.8891,2.8891,0,0,0,2.1421-.8994,2.9352,2.9352,0,0,0,.8823-2.124V390.6943a3.0116,3.0116,0,0,0-3.0244-3.0234,2.8747,2.8747,0,0,0-2.106.8818A2.9142,2.9142,0,0,0,660.2583,390.6943Z" transform="translate(-602.7358 -344.9961)"/><path d="M678.438,384.6826H684.45v24.0117h2.9873a2.8894,2.8894,0,0,0,2.1426-.8994,2.9357,2.9357,0,0,0,.8828-2.124V384.6826h5.9756v24.0117h3.0234a2.8507,2.8507,0,0,0,2.1065-.8994,2.9351,2.9351,0,0,0,.8818-2.124V384.6826h6.0117v16.74a10.2944,10.2944,0,0,1-10.26,10.26h-7.7392v-.9355a8.8251,8.8251,0,0,1-4.2481.9355H678.438Z" transform="translate(-602.7358 -344.9961)"/><line x1="131.2642" y1="36.5039" x2="3.2642" y2="36.5039" style="fill:none;stroke:#c18566;stroke-miterlimit:10;opacity:0.75"/></svg>